# xmcd
#
# Track frame offsets:
#  150
#  15459
#  32103
#  47228
#  66658
#  87460
#  100696
#  123798
#  140936
#  158502
#  180557
#
# Disc length: 2631 seconds
#
# Revision: 1
# Processed by: cddbd v1.5.1PL0 Copyright (c) Steve Scherf et al.
# Submitted via: Collectorz.com_Music_Collector 6.9
#
DISCID=920a450b
DTITLE=Shurman - Jubilee
DYEAR=2004
DGENRE=Country Alternative - Pop
TTITLE0=Drownin'
TTITLE1=Red Eyes
TTITLE2=Impossibilities
TTITLE3=Petty Song
TTITLE4=So Happy
TTITLE5=I Got You, Pt. 3
TTITLE6=Jubilee
TTITLE7=Tonight I'm Drinking
TTITLE8=Stay
TTITLE9=Down
TTITLE10=2 A. M.
EXTD=
EXTT0=
EXTT1=
EXTT2=
EXTT3=
EXTT4=
EXTT5=
EXTT6=
EXTT7=
EXTT8=
EXTT9=
EXTT10=
PLAYORDER=
